<svg xmlns="http://www.w3.org/2000/svg" xmlns:svg="http://www.w3.org/2000/svg" xmlns:xlink="http://www.w3.org/1999/xlink" id="svg5" width="297mm" height="196mm" version="1.1" viewBox="0 0 297 196"><defs id="defs2"><linearGradient id="linearGradient1730"><stop style="stop-color:#ff3653;stop-opacity:1" id="stop1726" offset="0"/><stop style="stop-color:#64000e;stop-opacity:1" id="stop1728" offset="1"/></linearGradient><linearGradient id="linearGradient30790"><stop style="stop-color:#0c0404;stop-opacity:1" id="stop30786" offset="0"/><stop style="stop-color:#000;stop-opacity:1" id="stop30788" offset="1"/></linearGradient><rect id="rect10900" width="6.796" height="211.629" x="645.264" y="340.256"/><radialGradient id="radialGradient30792" cx="148.476" cy="113.115" r="108.972" fx="148.476" fy="113.115" gradientTransform="matrix(1.355732,0.11027596,-0.0590915,0.72647057,-45.701731,4.1006795)" gradientUnits="userSpaceOnUse" xlink:href="#linearGradient30790"/><linearGradient id="linearGradient1732" x1="53.68" x2="215.97" y1="123.299" y2="123.299" gradientUnits="userSpaceOnUse" xlink:href="#linearGradient1730"/><linearGradient id="linearGradient4866" x1="53.68" x2="215.97" y1="123.299" y2="123.299" gradientUnits="userSpaceOnUse" xlink:href="#linearGradient1730"/><linearGradient id="linearGradient4868" x1="53.68" x2="215.97" y1="123.299" y2="123.299" gradientUnits="userSpaceOnUse" xlink:href="#linearGradient1730"/><linearGradient id="linearGradient4870" x1="53.68" x2="215.97" y1="123.299" y2="123.299" gradientUnits="userSpaceOnUse" xlink:href="#linearGradient1730"/></defs><g id="layer2" style="display:inline"><rect style="display:none;fill:url(#radialGradient30792);fill-opacity:1;stroke-width:.323307" id="rect1502" width="296.45" height="150.826" x=".683" y="27.236"/><path style="display:inline;fill:#000;stroke:#000;stroke-width:.25473px;stroke-linecap:butt;stroke-linejoin:miter;stroke-opacity:1" id="path2172" d="m 28.981861,63.065712 c 4.767607,-3.493706 6.993611,-6.436938 10.382702,-8.184955 5.54315,-2.859033 8.796871,-4.574243 16.691657,-6.545361 0,0 6.652354,0.279908 26.169934,3.17845 l 24.879766,7.457224 23.97035,-11.282045 16.5906,-0.333517 1.92362,-20.594624 34.64772,-22.09545 9.44324,-2.8348883 0.34975,56.5309983 -0.6995,5.669776 14.20516,-11.389831 21.41658,-3.847287 25.1745,0.887432 18.59693,17.017814 1.49743,15.608862 -9.32877,11.922782 10.45446,-3.668678 -6.41588,61.374376 -9.2827,8.07159 -17.50182,2.65258 -20.54637,0.74688 -21.20428,-3.75419 22.00662,23.68492 8.90162,9.18938 -58.36879,2.52472 -17.37766,-29.63242 -30.07846,-0.66704 -11.19199,-6.3368 -6.29549,-6.00329 0.34975,11.33955 -33.925716,2.66813 -6.645242,-3.00164 -34.275466,-0.33353 -11.541737,-8.67142 -0.791239,-30.43265 1.558865,-7.88603 13.259168,-14.28039 -11.776357,6.7791 -0.188796,-23.259779 1.783301,-14.548156"/></g><g id="layer4"><g id="layer1" style="display:inline"><g id="text429" aria-label="adc" transform="matrix(1.4804145,5.3940221e-8,1.0560902e-8,1.1472848,-52.033313,-40.01594)" style="font-size:156.042px;line-height:1.25;font-family:Haettenschweiler;-inkscape-font-specification:Haettenschweiler;display:inline;fill:url(#linearGradient1732);fill-opacity:1;stroke-width:3.90107"><path id="path17761" d="M 104.57654,172.39096 H 85.376062 v -3.42866 c -1.625437,3.09849 -6.273173,4.64774 -13.943207,4.64774 -11.835217,0 -17.752826,-4.62234 -17.752826,-13.86702 V 141.9902 c 0,-3.96201 1.422258,-7.41606 4.266774,-10.36217 2.895311,-2.9461 8.685932,-6.62873 17.371864,-11.04789 5.028697,-2.53975 7.543046,-4.57154 7.543046,-6.09539 v -13.10509 c 0,-2.895313 -1.244476,-4.34297 -3.733427,-4.34297 -2.844515,0 -4.266773,3.53025 -4.266773,10.59074 0,1.26987 0.07619,3.14929 0.228577,5.63824 0.203179,2.48895 0,-1.26987 0,0 l -21.329826,11.73035 0.681689,-23.76875 c 0.342139,-11.929522 8.635137,-17.905209 25.905411,-17.905209 16.152784,0 24.229176,6.22238 24.229176,18.667139 z m -21.714827,-16.53375 -0.22723,-19.18164 c -4.977902,1.21908 -7.239624,-0.14582 -7.239624,3.10505 v 16.07659 c 0,2.69213 1.295271,4.0382 3.885812,4.0382 2.387361,0 3.61293,-1.34635 3.581042,-4.0382 z" style="display:inline;fill:url(#linearGradient4866);fill-opacity:1"/><path id="path17763" d="m 186.32972,200.91309 -33.19634,-0.27691 -10.9178,-31.21672 c -3.70803,2.79372 -7.924,4.19058 -12.64793,4.19058 -5.53665,0 -10.26058,-1.29527 -14.17179,-3.88581 -3.86041,-2.59054 -5.79062,-6.12079 -5.79062,-10.59074 V 95.589035 c 0,-3.758824 1.52385,-6.730327 4.57155,-8.914509 3.09849,-2.234977 6.83191,-3.352465 11.20028,-3.352465 5.9938,0 10.46375,1.092091 13.40986,3.276273 V 63.131079 L 161.78894,45.685503 159.66323,166.70217 Z M 138.78693,148.65745 V 108.953 c 0,-2.59054 -1.01725,-8.87026 -3.5062,-8.87026 -2.53975,0 -4.00775,4.66927 -4.03685,7.36117 l -0.45446,42.04428 c -0.0291,2.6919 1.72433,6.80734 4.26408,6.80734 2.48895,0 3.73343,-4.94595 3.73343,-7.63808 z" style="display:inline;fill:url(#linearGradient4868);fill-opacity:1"/><path id="path17765" d="m 215.96981,109.6579 -22.54755,18.97487 0.90892,-27.25311 c 0.0965,-2.892925 -1.24448,-4.34297 -3.73343,-4.34297 -2.53975,0 -3.80962,1.447657 -3.80962,4.34297 v 54.17278 c 0,2.9969 1.26987,4.49535 3.80962,4.49535 2.48895,0 3.73343,-1.49845 3.73343,-4.49535 l -0.45446,-14.76413 22.09309,-21.04545 v 35.96197 c 0,11.93681 -8.35576,17.90521 -25.06729,17.90521 -17.16869,0 -25.8651,-6.22313 -25.75303,-18.66714 l 0.45446,-50.46147 c 0.11207,-12.444015 8.12988,-21.159369 25.29857,-21.159369 16.71153,0 25.06729,5.968403 25.06729,17.905209 z" style="display:inline;fill:url(#linearGradient4870);fill-opacity:1"/></g></g><g id="text12072" aria-label="delacruz" transform="matrix(-1.6598424e-8,1.3273194,-1.2796142,0,-52.033313,-40.01594)" style="font-size:21.8817px;line-height:1.25;font-family:Haettenschweiler;-inkscape-font-specification:Haettenschweiler;display:inline;opacity:.268293;fill:#502;fill-opacity:1;stroke-width:.547044"><path id="path16694" d="m 93.528056,-191.55282 -2.307729,-0.0232 -0.171802,-0.53287 c -0.519975,0.39176 -1.29614,0.46655 -1.958574,0.46655 -0.598063,-0.0303 -1.018204,-0.0705 -1.380873,-0.13984 -0.966506,-0.18486 -1.294361,-0.26488 -1.26522,-1.13008 v -8.91081 c 0,-0.52709 0.213688,-0.94379 0.641065,-1.25008 0.4345,-0.31341 0.958037,-0.47011 1.57061,-0.47011 0.840508,0 1.467328,0.15314 1.880459,0.45943 v -3.2908 h 3.034376 z m -2.992064,-1.81894 v -7.70347 c 0,-0.36327 -0.174512,-0.5449 -0.523537,-0.5449 -0.356147,0 -0.534221,0.18876 -0.534221,0.56627 v 7.6821 c 0,0.37752 0.178074,0.56628 0.534221,0.56628 0.349025,0 0.523537,-0.18876 0.523537,-0.56628 z" style="fill:#502;fill-opacity:1"/><path id="path16696" d="m 101.37,-196.30997 h -4.092136 v 2.89547 c 0,0.42026 0.178074,0.63039 0.534221,0.63039 0.349025,0 0.523537,-0.21013 0.523537,-0.63039 v -2.50015 H 101.37 v 2.52152 c 0,1.67389 -1.28648,1.93062 -3.672671,1.93062 -2.36482,0 -3.453842,-0.29234 -3.453842,-2.03746 v -7.42568 c 0,-1.74512 1.18241,-2.61768 3.547229,-2.61768 2.386194,0 3.579284,0.83695 3.579284,2.51084 z m -3.034378,-1.85909 v -2.84206 c 0,-0.40601 -0.174512,-0.60901 -0.523537,-0.60901 -0.356147,0 -0.534221,0.203 -0.534221,0.60901 v 2.84206 z" style="fill:#502;fill-opacity:1"/><path id="path16698" d="m 105.15015,-191.41471 -3.07498,-0.0164 v -14.94356 h 3.04506 z" style="fill:#502;fill-opacity:1"/><path id="path16700" d="m 113.00961,-191.30169 -2.67751,-0.0308 v -0.61224 c -0.27282,0.2209 -0.87788,0.57606 -1.95344,0.57606 -1.65964,0 -2.5212,-0.16174 -2.5212,-1.45811 v -2.48947 c 0,-0.55559 0.19944,-1.03995 0.59832,-1.45308 0.40601,-0.41313 1.21803,-0.92955 2.43605,-1.54925 0.70517,-0.35615 1.05776,-0.64106 1.05776,-0.85475 v -1.83772 c 0,-0.40601 -0.17451,-0.60901 -0.52354,-0.60901 -0.39888,0 -0.59832,0.49504 -0.59832,1.48513 0,0.17807 0.0107,0.44162 0.032,0.79065 0.0285,0.34903 0.0427,0.61258 0.0427,0.79065 h -2.93822 v -2.47879 c 0,-1.67389 1.2109,-2.51084 3.6327,-2.51084 2.2651,0 3.39765,0.87256 3.39765,2.61768 z m -3.06002,-2.07007 v -3.19464 c -0.69805,0.17095 -1.04707,0.48436 -1.04707,0.94023 v 2.25441 c 0,0.37752 0.18163,0.56628 0.5449,0.56628 0.33478,0 0.50217,-0.18876 0.50217,-0.56628 z" style="fill:#502;fill-opacity:1"/><path id="path16702" d="m 120.82633,-197.96606 h -3.03437 v -3.04506 c 0,-0.40601 -0.17451,-0.60901 -0.52354,-0.60901 -0.35615,0 -0.53422,0.203 -0.53422,0.60901 v 7.59662 c 0,0.42026 0.17807,0.63039 0.53422,0.63039 0.34903,0 0.52354,-0.21013 0.52354,-0.63039 v -3.00232 h 3.03437 v 3.02369 c 0,1.67389 -1.16115,2.13906 -3.50459,2.13906 -2.40756,0 -3.62192,-0.50078 -3.62192,-2.2459 v -7.42568 c 0,-1.74512 1.20378,-2.61768 3.61134,-2.61768 2.34345,0 3.51517,0.83695 3.51517,2.51084 z" style="fill:#502;fill-opacity:1"/><path id="path16704" d="m 128.71144,-198.31865 h -3.04506 v -2.69247 c 0,-0.37752 -0.17451,-0.56628 -0.52354,-0.56628 -0.34903,0 -0.52354,0.18164 -0.52354,0.54491 l 0.0212,9.86307 -3.09795,-0.0465 0.0317,-12.24196 h 3.04506 v 0.41669 c 0.40601,-0.33478 1.03283,-0.50217 1.88046,-0.50217 0.60545,0 1.12543,0.16383 1.55993,0.49148 0.4345,0.32053 0.65175,0.74435 0.65175,1.27145 z" style="fill:#502;fill-opacity:1"/><path id="path16706" d="m 136.38306,-191.23913 -1.49074,0.16233 -1.52247,0.0236 v -0.41669 c -0.39177,0.39176 -1.02917,0.40175 -1.89104,0.40175 -0.59833,0 -1.10772,0.0292 -1.54935,-0.28422 -0.4345,-0.32053 -0.65175,-0.73723 -0.65175,-1.25008 v -10.85537 h 3.03438 v 10.08609 c 0,0.37752 0.17807,0.56628 0.53422,0.56628 0.34903,0 0.52354,-0.18164 0.52354,-0.54491 v -10.10746 h 3.03437 z" style="fill:#502;fill-opacity:1"/><path id="path16708" d="m 141.91196,-193.51627 -1.64908,1.03636 -1.45092,0.66876 -1.61879,0.4326 -0.16925,-1.3842 3.45107,-8.7078 h -3.25875 v -1.9873 h 6.78461 v 1.67745 l -3.50449,8.76123 z" style="fill:#502;fill-opacity:1"/></g><path id="text7532" d="m 84.44818,132.84416 3.930544,-10e-6 c -0.365313,0.6266 -0.549024,1.57694 -0.549016,2.85123 -5e-6,0.92876 0.186027,1.72299 0.560228,2.38176 0.365692,0.64793 0.863116,0.97315 1.492457,0.97313 h 10.639837 c 0.7484,0 1.33883,-0.41137 1.77257,-1.23213 0.4337,-0.83156 0.47406,-1.80813 0.47369,-2.98536 0,-1.00432 -0.0552,-1.92877 -0.52301,-2.71712 l 0.49747,-0.38699 -2e-5,-3.48299 H 84.448195 Z m -5e-6,-17.34644 h 2.666686 l 10e-7,-4.61834 -2.666684,1e-5 z m 3.381524,29.77296 c 10e-6,3.67176 0.999764,5.50611 2.99835,5.50611 h 2.957983 v -4.45327 c -0.212603,-4e-5 -0.52671,0.0223 -0.943423,0.0654 -0.416719,0.0325 -0.730797,0.0483 -0.943424,0.0483 -1.182131,0 -1.774789,-0.30297 -1.774796,-0.90774 8e-6,-0.52917 0.243502,-0.7939 0.728315,-0.79388 l 2.193839,-1e-5 c 0.255141,-3e-5 0.59665,0.53574 1.021867,1.60488 0.739885,1.84668 1.355471,3.07512 1.848726,3.69071 0.4933,0.60473 1.071136,0.90771 1.734456,0.90774 h 2.973708 c 1.54781,-1e-5 2.14317,-1.25695 2.14314,-3.77322 0,-1.63068 -0.0826,-2.61948 -0.60143,-2.96508 h 0.57588 l 1e-5,-4.08048 H 90.955733 c -2.083619,0 -3.12606,1.71625 -3.126056,5.15043 z m 4e-6,-25.627 c 7e-6,1.2851 0.198607,2.23567 0.598316,2.85123 l -0.497464,-1e-5 -4e-6,4.61549 14.812369,1e-5 v -4.61549 l -11.914876,-2e-5 c -0.433743,2e-5 -0.652082,-0.26477 -0.652079,-0.79391 -3e-6,-0.52918 0.225982,-0.79392 0.676738,-0.79392 l 3.215697,-2e-5 1e-5,-4.61544 h -4.134486 c -0.629343,-1e-5 -1.134386,0.32864 -1.517085,0.98741 -0.391179,0.65873 -0.587116,1.4467 -0.587122,2.36465 z m -2e-6,-15.47126 c 6e-6,3.67178 0.999763,5.509 2.998337,5.509 l 2.958004,-1e-5 v -4.45612 c -0.212622,-4e-5 -0.526716,0.0223 -0.943432,0.0654 -0.416716,0.0325 -0.730798,0.0484 -0.943427,0.0484 -1.182131,0 -1.774789,-0.30293 -1.774789,-0.90772 0,-0.52917 0.243534,-0.79105 0.728281,-0.79107 h 2.193841 c 0.25514,-4e-5 0.59663,0.53293 1.021856,1.60203 0.739905,1.84669 1.3555,3.07798 1.848754,3.69352 0.493273,0.60474 1.071127,0.90775 1.734457,0.90776 h 2.973697 c 1.54782,-2e-5 1.98593,-1.30966 2.14317,-3.411 0.0969,-1.29528 -0.0826,-2.98169 -0.60143,-3.32727 h 0.57588 V 99.022056 H 90.955752 c -2.083616,0 -3.126069,1.716274 -3.126066,5.150434 z m 3e-6,-13.68708 c -1e-6,1.285111 0.19861,2.23568 0.598318,2.851243 h -0.497473 l 5e-6,4.615488 h 14.812366 v -4.615496 l -11.914883,8e-6 c -0.433731,0 -0.652088,-0.264774 -0.652088,-0.79393 -3e-6,-0.529154 0.225997,-0.793909 0.676742,-0.793909 H 102.74293 V 87.13328 H 89.933918 c -0.688858,-1e-5 -1.211447,0.350892 -1.568639,1.05285 -0.357184,0.701959 -0.535568,1.46765 -0.53557,2.299201 z m 2e-6,-10.093155 c -10e-7,3.671756 0.999758,5.508976 2.998332,5.508979 l 2.957994,6e-6 v -4.456137 c -0.212603,-4.2e-5 -0.526706,0.02225 -0.943422,0.06544 -0.416716,0.03241 -0.730805,0.04835 -0.943425,0.04835 -1.182133,8e-6 -1.774793,-0.300122 -1.77479,-0.904881 0,-0.529167 0.243538,-0.793905 0.728289,-0.793902 l 2.193848,-4e-6 c 0.255143,-2.8e-5 0.596623,0.53293 1.021868,1.602041 0.739886,1.846682 1.355481,3.077971 1.848736,3.693521 0.493282,0.604736 1.071117,0.907736 1.734447,0.907757 h 2.973697 c 1.54783,7e-6 2.17291,-1.17556 2.17291,-3.691785 0,-1.630706 -0.11238,-2.70089 -0.63116,-3.046473 l 0.57587,8e-6 10e-6,-4.08335 -11.787147,4e-6 c -2.083623,0 -3.126073,1.716265 -3.126068,5.150439 z m 0.100841,35.105525 h 14.812373 v -4.61832 l -14.812367,-1e-5 z m 2.19384,18.14036 c 10e-7,-0.52916 0.217958,-0.79403 0.652104,-0.79392 l 9.196684,-1e-5 c 0.450735,0 0.676725,0.26479 0.676735,0.79393 2e-5,0.53993 -0.22602,0.81097 -0.676735,0.81094 l -9.172038,1e-5 c -0.450762,-1e-5 -0.676767,-0.27103 -0.676765,-0.81097 z m 6.034762,11.09765 h 3.814036 c 0.450755,-10e-6 0.676725,0.25504 0.676755,0.76258 0,0.55078 -0.22623,0.82515 -0.676745,0.82518 l -2.691332,2e-5 c -0.544292,-1e-5 -0.918601,-0.52943 -1.122696,-1.58781 z m -9e-6,-41.09539 3.814055,-4e-5 c 0.450745,4e-5 0.676725,0.2522 0.676705,0.75977 2e-5,0.55079 -0.22621,0.82517 -0.676715,0.82524 h -2.69135 c -0.544291,-2e-5 -0.918377,-0.52703 -1.122705,-1.58497 z m 9e-6,-23.780273 3.814036,1.2e-5 c 0.450755,-5e-6 0.676735,0.252183 0.676725,0.75976 -1e-5,0.550779 -0.22594,0.825243 -0.676735,0.825224 l -2.691348,-3e-6 c -0.544283,-3e-6 -0.918359,-0.527007 -1.122687,-1.584976 z" style="font-size:22.7709px;line-height:1.25;display:inline;opacity:.29065;fill:#502;fill-opacity:1;stroke-width:.736011"/></g></svg>