<?xml version="1.0" encoding="UTF-8" standalone="no"?>


<svg
   width="297mm"
   height="196mm"
   viewBox="0 0 297 196"
   version="1.1"
   id="svg5"
   inkscape:version="1.1.1 (3bf5ae0d25, 2021-09-20)"
   sodipodi:docname="adc logo no bg.svg"
   inkscape:label="delacruz"
   xmlns:inkscape="http://www.inkscape.org/namespaces/inkscape"
   xmlns:sodipodi="http://sodipodi.sourceforge.net/DTD/sodipodi-0.dtd"
   xmlns:xlink="http://www.w3.org/1999/xlink"
   xmlns="http://www.w3.org/2000/svg"
   xmlns:svg="http://www.w3.org/2000/svg">
  <sodipodi:namedview
     id="namedview7"
     pagecolor="#505050"
     bordercolor="#eeeeee"
     borderopacity="1"
     inkscape:pageshadow="0"
     inkscape:pageopacity="0"
     inkscape:pagecheckerboard="0"
     inkscape:document-units="mm"
     showgrid="false"
     showguides="true"
     inkscape:guide-bbox="true"
     inkscape:zoom="0.18645874"
     inkscape:cx="88.491427"
     inkscape:cy="104.58078"
     inkscape:window-width="1280"
     inkscape:window-height="777"
     inkscape:window-x="-8"
     inkscape:window-y="-8"
     inkscape:window-maximized="1"
     inkscape:current-layer="layer4"
     height="209mm">
    <sodipodi:guide
       position="86.792232,110.66554"
       orientation="0,-1"
       id="guide5540" />
    <sodipodi:guide
       position="149.50338,148.29223"
       orientation="1,0"
       id="guide5542" />
    <sodipodi:guide
       position="195.40794,119.4451"
       orientation="0,-1"
       id="guide15212" />
    <sodipodi:guide
       position="180.35727,58.991553"
       orientation="0,-1"
       id="guide15214" />
  </sodipodi:namedview>
  <defs
     id="defs2">
    <linearGradient
       inkscape:collect="always"
       id="linearGradient30790">
      <stop
         style="stop-color:#0c0404;stop-opacity:1;"
         offset="0"
         id="stop30786" />
      <stop
         style="stop-color:#181010;stop-opacity:1"
         offset="1"
         id="stop30788" />
    </linearGradient>
    <linearGradient
       inkscape:collect="always"
       id="linearGradient25774">
      <stop
         style="stop-color:#580006;stop-opacity:1;"
         offset="0"
         id="stop25770" />
      <stop
         style="stop-color:#8c0034;stop-opacity:1"
         offset="1"
         id="stop25772" />
    </linearGradient>
    <rect
       x="645.26373"
       y="340.2562"
       width="6.7957749"
       height="211.62897"
       id="rect10900" />
    <linearGradient
       inkscape:collect="always"
       xlink:href="#linearGradient25774"
       id="linearGradient25776"
       x1="53.680031"
       y1="109.64777"
       x2="215.9698"
       y2="109.64777"
       gradientUnits="userSpaceOnUse" />
    <radialGradient
       inkscape:collect="always"
       xlink:href="#linearGradient30790"
       id="radialGradient30792"
       cx="148.47644"
       cy="113.11492"
       fx="148.47644"
       fy="113.11492"
       r="108.97213"
       gradientTransform="matrix(1.3602096,0,0,0.69203728,-53.050673,24.36898)"
       gradientUnits="userSpaceOnUse" />
    <linearGradient
       inkscape:collect="always"
       xlink:href="#linearGradient25774"
       id="linearGradient31197"
       gradientUnits="userSpaceOnUse"
       x1="53.680031"
       y1="109.64777"
       x2="215.9698"
       y2="109.64777" />
    <linearGradient
       inkscape:collect="always"
       xlink:href="#linearGradient25774"
       id="linearGradient31199"
       gradientUnits="userSpaceOnUse"
       x1="53.680031"
       y1="109.64777"
       x2="215.9698"
       y2="109.64777" />
    <linearGradient
       inkscape:collect="always"
       xlink:href="#linearGradient25774"
       id="linearGradient31201"
       gradientUnits="userSpaceOnUse"
       x1="53.680031"
       y1="109.64777"
       x2="215.9698"
       y2="109.64777" />
  </defs>
  <g
     inkscape:groupmode="layer"
     id="layer2"
     inkscape:label="bg"
     style="display:none">
    <rect
       style="fill:url(#radialGradient30792);fill-opacity:1;stroke-width:0.323307"
       id="rect1502"
       width="296.44983"
       height="150.82556"
       x="0.68346858"
       y="27.235975" />
  </g>
  <g
     inkscape:groupmode="layer"
     id="layer4"
     inkscape:label="whole text">
    <g
       inkscape:label="texts"
       inkscape:groupmode="layer"
       id="layer1"
       style="display:inline">
      <g
         aria-label="adc"
         transform="matrix(1.5015708,5.737405e-8,1.0711825e-8,1.2203208,-53.050669,-53.556499)"
         id="text429"
         style="font-size:156.042px;line-height:1.25;font-family:Haettenschweiler;-inkscape-font-specification:Haettenschweiler;fill:url(#linearGradient25776);fill-opacity:1;stroke-width:3.90107">
        <path
           d="M 104.57654,172.39096 H 85.376062 v -3.42866 c -1.625437,3.09849 -6.273173,4.64774 -13.943207,4.64774 -11.835217,0 -17.752826,-4.62234 -17.752826,-13.86702 V 141.9902 c 0,-3.96201 1.422258,-7.41606 4.266774,-10.36217 2.895311,-2.9461 8.685932,-6.62873 17.371864,-11.04789 5.028697,-2.53975 7.543046,-4.57154 7.543046,-6.09539 v -13.10509 c 0,-2.895313 -1.244476,-4.34297 -3.733427,-4.34297 -2.844515,0 -4.266773,3.53025 -4.266773,10.59074 0,1.26987 0.07619,3.14929 0.228577,5.63824 0.203179,2.48895 0,-1.26987 0,0 l -21.329826,11.73035 0.681689,-23.76875 c 0.342139,-11.929522 8.635137,-17.905209 25.905411,-17.905209 16.152784,0 24.229176,6.22238 24.229176,18.667139 z m -21.714827,-16.53375 -0.22723,-19.18164 c -4.977902,1.21908 -7.239624,-0.14582 -7.239624,3.10505 v 16.07659 c 0,2.69213 1.295271,4.0382 3.885812,4.0382 2.387361,0 3.61293,-1.34635 3.581042,-4.0382 z"
           id="path17761"
           sodipodi:nodetypes="cccsssccsssscccssscscssss"
           style="display:inline;fill:url(#linearGradient31197);fill-opacity:1" />
        <path
           d="m 186.32972,200.91309 -33.19634,-0.27691 -10.9178,-31.21672 c -3.70803,2.79372 -7.924,4.19058 -12.64793,4.19058 -5.53665,0 -10.26058,-1.29527 -14.17179,-3.88581 -3.86041,-2.59054 -5.79062,-6.12079 -5.79062,-10.59074 V 95.589035 c 0,-3.758824 1.52385,-6.730327 4.57155,-8.914509 3.09849,-2.234977 6.83191,-3.352465 11.20028,-3.352465 5.9938,0 10.46375,1.092091 13.40986,3.276273 V 63.131079 L 161.78894,45.685503 159.66323,166.70217 Z M 138.78693,148.65745 V 108.953 c 0,-2.59054 -1.01725,-8.87026 -3.5062,-8.87026 -2.53975,0 -4.00775,4.66927 -4.03685,7.36117 l -0.45446,42.04428 c -0.0291,2.6919 1.72433,6.80734 4.26408,6.80734 2.48895,0 3.73343,-4.94595 3.73343,-7.63808 z"
           id="path17763"
           sodipodi:nodetypes="cccscsscscccccsssssss"
           style="display:inline;fill:url(#linearGradient31199);fill-opacity:1" />
        <path
           d="m 215.96981,109.6579 -22.54755,18.97487 0.90892,-27.25311 c 0.0965,-2.892925 -1.24448,-4.34297 -3.73343,-4.34297 -2.53975,0 -3.80962,1.447657 -3.80962,4.34297 v 54.17278 c 0,2.9969 1.26987,4.49535 3.80962,4.49535 2.48895,0 3.73343,-1.49845 3.73343,-4.49535 l -0.45446,-14.76413 22.09309,-21.04545 v 35.96197 c 0,11.93681 -8.35576,17.90521 -25.06729,17.90521 -17.16869,0 -25.8651,-6.22313 -25.75303,-18.66714 l 0.45446,-50.46147 c 0.11207,-12.444015 8.12988,-21.159369 25.29857,-21.159369 16.71153,0 25.06729,5.968403 25.06729,17.905209 z"
           id="path17765"
           sodipodi:nodetypes="ccssssssccssssssc"
           style="display:inline;fill:url(#linearGradient31201);fill-opacity:1" />
      </g>
    </g>
    <g
       aria-label="delacruz"
       transform="matrix(-1.6835628e-8,1.4118164,-1.2979009,0,-53.050669,-53.556499)"
       id="text12072"
       style="font-size:21.8817px;line-height:1.25;font-family:Haettenschweiler;-inkscape-font-specification:Haettenschweiler;display:inline;fill:#6d0019;fill-opacity:1;stroke-width:0.547044">
      <path
         d="m 93.528056,-191.55282 -2.307729,-0.0232 -0.171802,-0.53287 c -0.519975,0.39176 -1.29614,0.46655 -1.958574,0.46655 -0.598063,-0.0303 -1.018204,-0.0705 -1.380873,-0.13984 -0.966506,-0.18486 -1.294361,-0.26488 -1.26522,-1.13008 v -8.91081 c 0,-0.52709 0.213688,-0.94379 0.641065,-1.25008 0.4345,-0.31341 0.958037,-0.47011 1.57061,-0.47011 0.840508,0 1.467328,0.15314 1.880459,0.45943 v -3.2908 h 3.034376 z m -2.992064,-1.81894 v -7.70347 c 0,-0.36327 -0.174512,-0.5449 -0.523537,-0.5449 -0.356147,0 -0.534221,0.18876 -0.534221,0.56627 v 7.6821 c 0,0.37752 0.178074,0.56628 0.534221,0.56628 0.349025,0 0.523537,-0.18876 0.523537,-0.56628 z"
         id="path16694"
         sodipodi:nodetypes="ccccscscsccccsssssss"
         style="fill:#6d0019;fill-opacity:1" />
      <path
         d="m 101.37,-196.30997 h -4.092136 v 2.89547 c 0,0.42026 0.178074,0.63039 0.534221,0.63039 0.349025,0 0.523537,-0.21013 0.523537,-0.63039 v -2.50015 H 101.37 v 2.52152 c 0,1.67389 -1.28648,1.93062 -3.672671,1.93062 -2.36482,0 -3.453842,-0.29234 -3.453842,-2.03746 v -7.42568 c 0,-1.74512 1.18241,-2.61768 3.547229,-2.61768 2.386194,0 3.579284,0.83695 3.579284,2.51084 z m -3.034378,-1.85909 v -2.84206 c 0,-0.40601 -0.174512,-0.60901 -0.523537,-0.60901 -0.356147,0 -0.534221,0.203 -0.534221,0.60901 v 2.84206 z"
         id="path16696"
         sodipodi:nodetypes="ccsssccssssssccssscc"
         style="fill:#6d0019;fill-opacity:1" />
      <path
         d="m 105.15015,-191.41471 -3.07498,-0.0164 v -14.94356 h 3.04506 z"
         id="path16698"
         style="fill:#6d0019;fill-opacity:1"
         sodipodi:nodetypes="ccccc" />
      <path
         d="m 113.00961,-191.30169 -2.67751,-0.0308 v -0.61224 c -0.27282,0.2209 -0.87788,0.57606 -1.95344,0.57606 -1.65964,0 -2.5212,-0.16174 -2.5212,-1.45811 v -2.48947 c 0,-0.55559 0.19944,-1.03995 0.59832,-1.45308 0.40601,-0.41313 1.21803,-0.92955 2.43605,-1.54925 0.70517,-0.35615 1.05776,-0.64106 1.05776,-0.85475 v -1.83772 c 0,-0.40601 -0.17451,-0.60901 -0.52354,-0.60901 -0.39888,0 -0.59832,0.49504 -0.59832,1.48513 0,0.17807 0.0107,0.44162 0.032,0.79065 0.0285,0.34903 0.0427,0.61258 0.0427,0.79065 h -2.93822 v -2.47879 c 0,-1.67389 1.2109,-2.51084 3.6327,-2.51084 2.2651,0 3.39765,0.87256 3.39765,2.61768 z m -3.06002,-2.07007 v -3.19464 c -0.69805,0.17095 -1.04707,0.48436 -1.04707,0.94023 v 2.25441 c 0,0.37752 0.18163,0.56628 0.5449,0.56628 0.33478,0 0.50217,-0.18876 0.50217,-0.56628 z"
         id="path16700"
         sodipodi:nodetypes="cccsssccsssscccssccscssss"
         style="fill:#6d0019;fill-opacity:1" />
      <path
         d="m 120.82633,-197.96606 h -3.03437 v -3.04506 c 0,-0.40601 -0.17451,-0.60901 -0.52354,-0.60901 -0.35615,0 -0.53422,0.203 -0.53422,0.60901 v 7.59662 c 0,0.42026 0.17807,0.63039 0.53422,0.63039 0.34903,0 0.52354,-0.21013 0.52354,-0.63039 v -3.00232 h 3.03437 v 3.02369 c 0,1.67389 -1.16115,2.13906 -3.50459,2.13906 -2.40756,0 -3.62192,-0.50078 -3.62192,-2.2459 v -7.42568 c 0,-1.74512 1.20378,-2.61768 3.61134,-2.61768 2.34345,0 3.51517,0.83695 3.51517,2.51084 z"
         id="path16702"
         sodipodi:nodetypes="ccssssssccssssssc"
         style="fill:#6d0019;fill-opacity:1" />
      <path
         d="m 128.71144,-198.31865 h -3.04506 v -2.69247 c 0,-0.37752 -0.17451,-0.56628 -0.52354,-0.56628 -0.34903,0 -0.52354,0.18164 -0.52354,0.54491 l 0.0212,9.86307 -3.09795,-0.0465 0.0317,-12.24196 h 3.04506 v 0.41669 c 0.40601,-0.33478 1.03283,-0.50217 1.88046,-0.50217 0.60545,0 1.12543,0.16383 1.55993,0.49148 0.4345,0.32053 0.65175,0.74435 0.65175,1.27145 z"
         id="path16704"
         style="fill:#6d0019;fill-opacity:1"
         sodipodi:nodetypes="ccssscccccscsc" />
      <path
         d="m 136.38306,-191.23913 -1.49074,0.16233 -1.52247,0.0236 v -0.41669 c -0.39177,0.39176 -1.02917,0.40175 -1.89104,0.40175 -0.59833,0 -1.10772,0.0292 -1.54935,-0.28422 -0.4345,-0.32053 -0.65175,-0.73723 -0.65175,-1.25008 v -10.85537 h 3.03438 v 10.08609 c 0,0.37752 0.17807,0.56628 0.53422,0.56628 0.34903,0 0.52354,-0.18164 0.52354,-0.54491 v -10.10746 h 3.03437 z"
         id="path16706"
         sodipodi:nodetypes="ccccscsccsssccc"
         style="fill:#6d0019;fill-opacity:1" />
      <path
         d="m 141.91196,-193.51627 -1.64908,1.03636 -1.45092,0.66876 -1.61879,0.4326 -0.16925,-1.3842 3.45107,-8.7078 h -3.25875 v -1.9873 h 6.78461 v 1.67745 l -3.50449,8.76123 z"
         id="path16708"
         sodipodi:nodetypes="ccccccccccccc"
         style="fill:#6d0019;fill-opacity:1" />
    </g>
    <path
       id="text7532"
       style="font-size:22.7709px;line-height:1.25;display:inline;fill:#73001e;fill-opacity:1;stroke-width:0.764482"
       inkscape:label="adriana"
       d="m 85.381251,130.30786 3.986714,-1e-5 c -0.370533,0.66648 -0.55687,1.67733 -0.556862,3.03274 -5e-6,0.98788 0.188686,1.83267 0.568234,2.53338 0.370918,0.68918 0.875451,1.0351 1.513786,1.03508 h 10.791887 c 0.7591,0 1.35796,-0.43756 1.7979,-1.31057 0.4399,-0.88449 0.48084,-1.92323 0.48046,-3.17541 0,-1.06825 -0.056,-2.05155 -0.53048,-2.89009 l 0.50458,-0.41162 -2e-5,-3.70471 H 85.381266 Z m -5e-6,-18.45071 h 2.704795 l 1e-6,-4.91234 -2.704793,1e-5 z m 3.429848,31.6683 c 1e-5,3.9055 1.014052,5.85664 3.041199,5.85664 h 3.000255 v -4.73677 c -0.215642,-4e-5 -0.534237,0.0237 -0.956906,0.0696 -0.422674,0.0346 -0.74124,0.0514 -0.956906,0.0514 -1.199024,0 -1.800152,-0.32225 -1.800159,-0.96551 8e-6,-0.56287 0.246982,-0.84445 0.738723,-0.84443 l 2.225191,-1e-5 c 0.258787,-3e-5 0.605176,0.56985 1.03647,1.70705 0.750459,1.96423 1.374842,3.27088 1.875146,3.92565 0.50035,0.64323 1.086443,0.9655 1.759243,0.96554 h 3.0162 c 1.56993,-1e-5 2.1738,-1.33698 2.17377,-4.01343 0,-1.73449 -0.0838,-2.78624 -0.61002,-3.15383 h 0.58411 l 1e-5,-4.34025 H 91.981802 c -2.113396,0 -3.170734,1.8255 -3.17073,5.4783 z m 4e-6,-27.25841 c 7e-6,1.3669 0.201445,2.37799 0.606867,3.03273 l -0.504574,-10e-6 -4e-6,4.90932 15.024053,1e-5 v -4.90932 l -12.085152,-2e-5 c -0.439942,2e-5 -0.661401,-0.28163 -0.661398,-0.84445 -3e-6,-0.56286 0.229212,-0.84445 0.686409,-0.84445 l 3.261652,-2e-5 10e-6,-4.90927 H 90.94539 c -0.638337,-1e-5 -1.150597,0.34957 -1.538765,1.05028 -0.396769,0.70067 -0.595507,1.53878 -0.595513,2.51517 z m -2e-6,-16.456155 c 6e-6,3.905515 1.014051,5.859685 3.041186,5.859685 l 3.000276,-1e-5 v -4.73979 c -0.215661,-4e-5 -0.534243,0.0237 -0.956914,0.0696 -0.422672,0.0345 -0.741242,0.0515 -0.95691,0.0515 -1.199024,0 -1.800152,-0.32223 -1.800152,-0.96552 0,-0.562845 0.247014,-0.841405 0.738689,-0.841425 h 2.225192 c 0.258787,-4e-5 0.605157,0.56685 1.03646,1.704015 0.750478,1.96424 1.374871,3.27392 1.875174,3.92864 0.500322,0.64324 1.086434,0.96555 1.759243,0.96556 h 3.01619 c 1.56994,-2e-5 2.01431,-1.39303 2.1738,-3.62814 0.0983,-1.37775 -0.0838,-3.171505 -0.61002,-3.539095 h 0.58411 V 94.332644 H 91.981821 c -2.113393,0 -3.170743,1.825531 -3.17074,5.478311 z m 3e-6,-14.558404 c -10e-7,1.366921 0.201448,2.378003 0.606869,3.032753 h -0.504583 l 5e-6,4.90931 h 15.02405 v -4.90932 l -12.085159,1e-5 c -0.43993,0 -0.661407,-0.28163 -0.661407,-0.844471 -3e-6,-0.562841 0.229227,-0.844451 0.686413,-0.844451 H 103.93745 V 81.687028 H 90.945384 c -0.698702,-1e-5 -1.228759,0.37323 -1.591056,1.119875 -0.362288,0.746647 -0.543222,1.561081 -0.543224,2.445568 z m 2e-6,-10.735685 c -10e-7,3.9055 1.014046,5.859677 3.041181,5.85968 l 3.000266,8e-6 v -4.739815 c -0.215642,-4.5e-5 -0.534233,0.02366 -0.956904,0.0696 -0.422672,0.03447 -0.741249,0.05144 -0.956908,0.05144 -1.199026,8e-6 -1.800156,-0.319228 -1.800153,-0.962486 0,-0.562853 0.247018,-0.844444 0.738697,-0.844441 l 2.2252,-5e-6 c 0.258789,-3e-5 0.605149,0.566856 1.036471,1.704027 0.75046,1.964242 1.374852,3.273914 1.875156,3.92865 0.500331,0.643234 1.086424,0.965523 1.759233,0.965545 h 3.01619 c 1.56995,7e-6 2.20397,-1.250396 2.20397,-3.926804 0,-1.734516 -0.11399,-2.872827 -0.64018,-3.240411 l 0.5841,8e-6 1e-5,-4.343295 -11.955598,4e-6 c -2.1134,0 -3.170747,1.825522 -3.170742,5.478315 z m 0.102282,37.340344 h 15.024057 v -4.91232 l -15.024051,-1e-5 z m 2.225192,19.29516 c 10e-7,-0.56284 0.221073,-0.84457 0.661423,-0.84445 l 9.328112,-1e-5 c 0.45718,0 0.6864,0.28164 0.68641,0.84446 2e-5,0.57432 -0.22925,0.8626 -0.68641,0.86258 l -9.303114,1e-5 c -0.457203,-1e-5 -0.686438,-0.28829 -0.686436,-0.86261 z m 6.121003,11.80413 h 3.868542 c 0.4572,-1e-5 0.6864,0.27128 0.68643,0.81113 0,0.58584 -0.22947,0.87768 -0.68642,0.87772 l -2.729793,2e-5 c -0.55207,-1e-5 -0.931729,-0.56314 -1.13874,-1.6889 z m -9e-6,-43.711515 3.868561,-4e-5 c 0.45719,4e-5 0.6864,0.26825 0.68638,0.808135 2e-5,0.58585 -0.22945,0.87769 -0.68639,0.87778 h -2.729811 c -0.55207,-3e-5 -0.931502,-0.56058 -1.13875,-1.685875 z m 9e-6,-25.294121 3.868542,1.1e-5 c 0.4572,-5e-6 0.68641,0.268237 0.6864,0.808128 -1e-5,0.585841 -0.22917,0.877777 -0.68641,0.877757 l -2.72981,-3e-6 c -0.552061,-4e-6 -0.931483,-0.560558 -1.138731,-1.685876 z"
       sodipodi:nodetypes="ccscsscsccccccccccsscccssssccssscccsssscccccsssccscssscccssssccssscccsssscccccsssccssssscccssssccssscccssscccccsssssssscssssccssssccssssc" />
  </g>
</svg>
